# File created by Blade
# Date/Time:  Tue Apr 07 21:25:57 2015
# Frame Rate: 120.000 fps
#------------------------------------------------------
:FULLY-SPECIFIED
:DEGREES
205
root 22.797347 32.575024 3.924316 39.030862 -83.211730 -25.549281
Spine -2.990730 -6.572267 -0.056885
Head 25.834185 -0.652875 3.772793
LeftShoulder -11.593678 44.669189 9.728563
LeftArm 57.625550 14.499928 -73.310309
LeftForeArm -24.048841 -0.000000 13.622779
LeftHand 6.315325 -0.000000 -17.841447
LeftHandThumb1 -26.253704 0.000000 33.147579
RightShoulder -2.454718 -8.287640 -13.314159
RightArm 18.070038 -19.991517 87.969946
RightForeArm 8.659123 -0.000000 11.457565
RightHand 3.973557 -0.000000 8.183318
RightHandThumb1 -24.326973 -0.000000 -32.862282
LeftUpLeg -11.459086 9.976950 -3.123972
LeftLeg 3.443213 -0.000000 -0.000000
LeftFoot -14.088186 25.686002 -16.377903
LeftToeBase -9.826686 -0.000000 0.000000
RightUpLeg -27.597175 3.610543 3.410970
RightLeg 32.850019 -0.000000 -0.000000
RightFoot -17.589802 -11.450427 18.542581
RightToeBase -7.123530 -0.000000 0.000000
206
root 22.880570 32.577854 3.901798 40.558578 -83.376833 -26.859065
Spine -2.908636 -6.649140 0.062949
Head 25.438370 -0.502638 3.675309
LeftShoulder -11.496067 44.563553 9.853924
LeftArm 57.730904 14.360079 -73.336437
LeftForeArm -23.639861 -0.000000 13.828871
LeftHand 6.601166 0.000000 -17.724821
LeftHandThumb1 -26.253704 0.000000 33.147579
RightShoulder -2.362959 -8.243302 -13.394424
RightArm 18.096120 -20.000134 87.954469
RightForeArm 8.506410 -0.000000 11.444400
RightHand 3.994613 -0.000000 8.289608
RightHandThumb1 -24.326973 -0.000000 -32.862282
LeftUpLeg -11.924678 9.868379 -3.100273
LeftLeg 3.653254 -0.000000 -0.000000
LeftFoot -14.242583 25.940537 -16.485115
LeftToeBase -9.664847 -0.000000 0.000000
RightUpLeg -27.460824 3.495330 3.545930
RightLeg 32.092806 -0.000000 -0.000000
RightFoot -17.485279 -11.197067 18.755279
RightToeBase -6.970407 -0.000000 0.000000
207
root 22.948538 32.582282 3.881274 42.445181 -83.728025 -28.589074
Spine -2.802776 -6.563110 0.047047
Head 25.136643 -0.329103 3.610504
LeftShoulder -11.365918 44.443661 10.008242
LeftArm 57.756141 14.230442 -73.370221
LeftForeArm -23.249271 0.000000 14.151192
LeftHand 6.344707 -0.000000 -17.345359
LeftHandThumb1 -26.253704 0.000000 33.147579
RightShoulder -2.245912 -8.233048 -13.430933
RightArm 18.111654 -19.967870 87.950606
RightForeArm 8.434486 -0.000000 11.433094
RightHand 4.088217 0.000000 8.317040
RightHandThumb1 -24.326973 -0.000000 -32.862282
LeftUpLeg -12.241951 9.986385 -3.153644
LeftLeg 3.770363 -0.000000 -0.000000
LeftFoot -14.250640 26.089640 -16.486621
LeftToeBase -9.630941 -0.000000 0.000000
RightUpLeg -27.204644 3.605815 3.566345
RightLeg 31.190942 -0.000000 -0.000000
RightFoot -17.224297 -10.970329 18.890661
RightToeBase -7.133037 -0.000000 0.000000
208
root 23.006660 32.581471 3.865316 44.278728 -84.128535 -30.304670
Spine -2.666018 -6.422948 -0.029049
Head 24.822054 -0.181135 3.532433
LeftShoulder -11.279174 44.409026 10.141699
LeftArm 57.863891 14.142751 -73.309521
LeftForeArm -23.052379 -0.000000 14.366166
LeftHand 6.503009 -0.000000 -17.103156
LeftHandThumb1 -26.253704 0.000000 33.147579
RightShoulder -2.193959 -8.264797 -13.461012
RightArm 18.154386 -19.983180 87.923990
RightForeArm 8.293785 -0.000000 11.463292
RightHand 4.048819 -0.000000 8.360836
RightHandThumb1 -24.326973 -0.000000 -32.862282
LeftUpLeg -12.465218 10.126239 -3.268333
LeftLeg 3.791646 -0.000000 -0.000000
LeftFoot -14.373075 26.296449 -16.649008
LeftToeBase -9.507008 -0.000000 0.000000
RightUpLeg -27.056925 3.269293 3.642014
RightLeg 30.568317 -0.000000 -0.000000
RightFoot -16.644229 -10.399656 18.812644
RightToeBase -7.156370 -0.000000 0.000000
